# Blender v2.78 (sub 0) OBJ File: 'test.blend'
# www.blender.org
mtllib zlta.mtl
o Cube.001
v -0.502239 0.512808 0.288303
v -0.502239 1.012808 0.288303
v -0.502239 0.512808 -0.211697
v -0.502239 1.012808 -0.211697
v -0.002239 0.512808 0.288303
v -0.002239 1.012808 0.288303
v -0.002239 0.512808 -0.211697
v -0.002239 1.012808 -0.211697
vt 0.8349 0.8329
vt 0.6962 0.9693
vt 0.6973 0.8318
vt 0.9736 0.6964
vt 0.8349 0.8329
vt 0.8360 0.6953
vt 0.9724 0.8340
vt 0.8337 0.9705
vt 0.8349 0.8329
vt 0.6984 0.6942
vt 0.8360 0.6953
vt 0.6973 0.8318
vt 0.5586 0.9682
vt 0.5597 0.8306
vt 0.8371 0.5577
vt 0.9736 0.6964
vt 0.8360 0.6953
vt 0.8337 0.9705
vt 0.9713 0.9716
vt 0.6973 0.8318
vt 0.6962 0.9693
vt 0.9747 0.5588
vn -1.0000 0.0000 0.0000
vn 0.0000 0.0000 -1.0000
vn 1.0000 0.0000 0.0000
vn 0.0000 0.0000 1.0000
vn 0.0000 -1.0000 0.0000
vn 0.0000 1.0000 0.0000
usemtl Material.002
s off
f 2/1/1 3/2/1 1/3/1
f 4/4/2 7/5/2 3/6/2
f 8/7/3 5/8/3 7/5/3
f 6/9/4 1/10/4 5/11/4
f 7/12/5 1/13/5 3/14/5
f 4/15/6 6/16/6 8/17/6
f 2/1/1 4/18/1 3/2/1
f 4/4/2 8/7/2 7/5/2
f 8/7/3 6/19/3 5/8/3
f 6/9/4 2/20/4 1/10/4
f 7/12/5 5/21/5 1/13/5
f 4/15/6 2/22/6 6/16/6
